<mxfile host="www.draw.io" modified="2019-12-03T06:47:56.882Z" agent="Mozilla/5.0 (Windows NT 6.1; Win64; x64) AppleWebKit/537.36 (KHTML, like Gecko) Chrome/78.0.3904.108 Safari/537.36" etag="utZ1B3WqXst5hbNHvZOY" version="12.3.5" type="github" pages="1">
  <diagram id="-xnqDO5uDrapk-A6JrnL" name="第 1 页">
    <mxGraphModel dx="1038" dy="572" grid="1" gridSize="10" guides="1" tooltips="1" connect="1" arrows="1" fold="1" page="1" pageScale="1" pageWidth="2339" pageHeight="3300" math="0" shadow="0">
      <root>
        <mxCell id="0"/>
        <mxCell id="1" parent="0"/>
        <mxCell id="E_ACQnhVHgZpY5XNoCvP-15" value="字体大小" style="fillColor=none;strokeColor=none;html=1;fontSize=11;fontStyle=0;align=left;fontColor=#596780;fontStyle=1;fontSize=11" parent="1" vertex="1">
          <mxGeometry x="84" y="207" width="60" height="20" as="geometry"/>
        </mxCell>
        <mxCell id="E_ACQnhVHgZpY5XNoCvP-16" value="45" style="rounded=1;arcSize=9;fillColor=#F7F8F9;align=left;spacingLeft=5;strokeColor=#DEE1E6;html=1;strokeWidth=2;fontSize=12" parent="1" vertex="1">
          <mxGeometry x="184" y="202" width="100" height="30" as="geometry"/>
        </mxCell>
        <mxCell id="E_ACQnhVHgZpY5XNoCvP-40" value="xxx.ttf" style="rounded=1;fillColor=#253858;strokeColor=none;html=1;fontColor=#ffffff;align=left;fontSize=12;spacingLeft=10" parent="1" vertex="1">
          <mxGeometry x="372" y="200" width="110" height="35" as="geometry"/>
        </mxCell>
        <mxCell id="E_ACQnhVHgZpY5XNoCvP-41" value="" style="shape=triangle;direction=south;fillColor=#ffffff;strokeColor=none;html=1" parent="E_ACQnhVHgZpY5XNoCvP-40" vertex="1">
          <mxGeometry x="1" y="0.5" width="12" height="6" relative="1" as="geometry">
            <mxPoint x="-20" y="-3" as="offset"/>
          </mxGeometry>
        </mxCell>
        <mxCell id="91r5-gFKFPTO61zWIt9e-17" style="edgeStyle=orthogonalEdgeStyle;rounded=0;orthogonalLoop=1;jettySize=auto;html=1;" edge="1" parent="1" source="E_ACQnhVHgZpY5XNoCvP-42">
          <mxGeometry relative="1" as="geometry">
            <mxPoint x="750" y="215" as="targetPoint"/>
          </mxGeometry>
        </mxCell>
        <mxCell id="E_ACQnhVHgZpY5XNoCvP-42" value="" style="rounded=1;fillColor=#ffffff;strokeColor=#DFE1E5;shadow=1;html=1;arcSize=4;align=center;" parent="1" vertex="1">
          <mxGeometry x="514" y="180" width="102" height="70" as="geometry"/>
        </mxCell>
        <mxCell id="E_ACQnhVHgZpY5XNoCvP-43" value="xxx.ttf" style="rounded=0;fillColor=#F4F5F7;strokeColor=none;shadow=0;html=1;align=center;fontSize=12;spacingLeft=10;fontColor=#253858;resizeWidth=1" parent="E_ACQnhVHgZpY5XNoCvP-42" vertex="1">
          <mxGeometry width="102" height="33" relative="1" as="geometry">
            <mxPoint as="offset"/>
          </mxGeometry>
        </mxCell>
        <mxCell id="E_ACQnhVHgZpY5XNoCvP-44" value="xxx.ttf" style="rounded=0;fillColor=none;strokeColor=none;shadow=0;html=1;align=center;fontSize=12;spacingLeft=10;fontColor=#253858;resizeWidth=1" parent="E_ACQnhVHgZpY5XNoCvP-42" vertex="1">
          <mxGeometry width="102" height="33" relative="1" as="geometry">
            <mxPoint y="39" as="offset"/>
          </mxGeometry>
        </mxCell>
        <mxCell id="E_ACQnhVHgZpY5XNoCvP-45" value="字体" style="fillColor=none;strokeColor=none;html=1;fontSize=11;fontStyle=0;align=center;fontColor=#596780;fontStyle=1;fontSize=11" parent="1" vertex="1">
          <mxGeometry x="294" y="207" width="60" height="20" as="geometry"/>
        </mxCell>
        <mxCell id="E_ACQnhVHgZpY5XNoCvP-46" value="515151" style="rounded=1;fillColor=#253858;strokeColor=none;html=1;fontColor=#ffffff;align=left;fontSize=12;spacingLeft=10" parent="1" vertex="1">
          <mxGeometry x="186" y="290" width="110" height="35" as="geometry"/>
        </mxCell>
        <mxCell id="E_ACQnhVHgZpY5XNoCvP-47" value="" style="shape=triangle;direction=south;fillColor=#ffffff;strokeColor=none;html=1" parent="E_ACQnhVHgZpY5XNoCvP-46" vertex="1">
          <mxGeometry x="1" y="0.5" width="12" height="6" relative="1" as="geometry">
            <mxPoint x="-20" y="-3" as="offset"/>
          </mxGeometry>
        </mxCell>
        <mxCell id="E_ACQnhVHgZpY5XNoCvP-48" value="透明度" style="fillColor=none;strokeColor=none;html=1;fontSize=11;fontStyle=0;align=center;fontColor=#596780;fontStyle=1;fontSize=11" parent="1" vertex="1">
          <mxGeometry x="55" y="300.5" width="60" height="20" as="geometry"/>
        </mxCell>
        <mxCell id="E_ACQnhVHgZpY5XNoCvP-49" value="383838" style="rounded=1;fillColor=#253858;strokeColor=none;html=1;fontColor=#ffffff;align=left;fontSize=12;spacingLeft=10" parent="1" vertex="1">
          <mxGeometry x="506" y="292.5" width="110" height="35" as="geometry"/>
        </mxCell>
        <mxCell id="E_ACQnhVHgZpY5XNoCvP-50" value="" style="shape=triangle;direction=south;fillColor=#ffffff;strokeColor=none;html=1" parent="E_ACQnhVHgZpY5XNoCvP-49" vertex="1">
          <mxGeometry x="1" y="0.5" width="12" height="6" relative="1" as="geometry">
            <mxPoint x="-20" y="-3" as="offset"/>
          </mxGeometry>
        </mxCell>
        <mxCell id="E_ACQnhVHgZpY5XNoCvP-51" value="按下颜色" style="fillColor=none;strokeColor=none;html=1;fontSize=11;fontStyle=0;align=center;fontColor=#596780;fontStyle=1;fontSize=11" parent="1" vertex="1">
          <mxGeometry x="330" y="300" width="60" height="20" as="geometry"/>
        </mxCell>
        <mxCell id="E_ACQnhVHgZpY5XNoCvP-52" value="66" style="rounded=1;arcSize=9;fillColor=#F7F8F9;align=left;spacingLeft=5;strokeColor=#DEE1E6;html=1;strokeWidth=2;fontSize=12" parent="1" vertex="1">
          <mxGeometry x="446" y="298" width="40" height="25" as="geometry"/>
        </mxCell>
        <mxCell id="E_ACQnhVHgZpY5XNoCvP-53" value="66" style="rounded=1;arcSize=9;fillColor=#F7F8F9;align=left;spacingLeft=5;strokeColor=#DEE1E6;html=1;strokeWidth=2;fontSize=12" parent="1" vertex="1">
          <mxGeometry x="116" y="297.5" width="40" height="25" as="geometry"/>
        </mxCell>
        <mxCell id="E_ACQnhVHgZpY5XNoCvP-54" value="" style="rounded=1;fillColor=#ffffff;strokeColor=#DFE1E5;shadow=1;html=1;arcSize=4;align=center;" parent="1" vertex="1">
          <mxGeometry x="630" y="292.5" width="160" height="160" as="geometry"/>
        </mxCell>
        <mxCell id="E_ACQnhVHgZpY5XNoCvP-55" value="515151" style="rounded=0;fillColor=#F4F5F7;strokeColor=none;shadow=0;html=1;align=center;fontSize=12;spacingLeft=10;fontColor=#253858;resizeWidth=1" parent="E_ACQnhVHgZpY5XNoCvP-54" vertex="1">
          <mxGeometry width="160" height="33" relative="1" as="geometry">
            <mxPoint as="offset"/>
          </mxGeometry>
        </mxCell>
        <mxCell id="E_ACQnhVHgZpY5XNoCvP-56" value="383838" style="rounded=0;fillColor=none;strokeColor=none;shadow=0;html=1;align=center;fontSize=12;spacingLeft=10;fontColor=#253858;resizeWidth=1" parent="E_ACQnhVHgZpY5XNoCvP-54" vertex="1">
          <mxGeometry width="160" height="33" relative="1" as="geometry">
            <mxPoint y="39" as="offset"/>
          </mxGeometry>
        </mxCell>
        <mxCell id="E_ACQnhVHgZpY5XNoCvP-61" value="525252" style="rounded=0;fillColor=#F4F5F7;strokeColor=none;shadow=0;html=1;align=center;fontSize=12;spacingLeft=10;fontColor=#253858;resizeWidth=1" parent="E_ACQnhVHgZpY5XNoCvP-54" vertex="1">
          <mxGeometry y="75" width="160" height="33" as="geometry">
            <mxPoint as="offset"/>
          </mxGeometry>
        </mxCell>
        <mxCell id="91r5-gFKFPTO61zWIt9e-22" style="edgeStyle=orthogonalEdgeStyle;rounded=0;orthogonalLoop=1;jettySize=auto;html=1;entryX=0;entryY=0.5;entryDx=0;entryDy=0;" edge="1" parent="E_ACQnhVHgZpY5XNoCvP-54" source="E_ACQnhVHgZpY5XNoCvP-56" target="91r5-gFKFPTO61zWIt9e-18">
          <mxGeometry relative="1" as="geometry">
            <Array as="points">
              <mxPoint x="190" y="61"/>
            </Array>
          </mxGeometry>
        </mxCell>
        <mxCell id="E_ACQnhVHgZpY5XNoCvP-62" value="颜色" style="fillColor=none;strokeColor=none;html=1;fontSize=11;fontStyle=0;align=center;fontColor=#596780;fontStyle=1;fontSize=11" parent="1" vertex="1">
          <mxGeometry x="10" y="300" width="60" height="20" as="geometry"/>
        </mxCell>
        <mxCell id="E_ACQnhVHgZpY5XNoCvP-63" value="透明度" style="fillColor=none;strokeColor=none;html=1;fontSize=11;fontStyle=0;align=center;fontColor=#596780;fontStyle=1;fontSize=11" parent="1" vertex="1">
          <mxGeometry x="390" y="300" width="60" height="20" as="geometry"/>
        </mxCell>
        <mxCell id="E_ACQnhVHgZpY5XNoCvP-64" value="" style="rounded=1;align=center;fillColor=#F1F2F4;strokeColor=none;html=1;fontColor=#596780;fontSize=12" parent="1" vertex="1">
          <mxGeometry x="70" y="490" width="854" height="200" as="geometry"/>
        </mxCell>
        <mxCell id="E_ACQnhVHgZpY5XNoCvP-65" value="保存" style="rounded=1;fillColor=#0057D8;align=center;strokeColor=none;html=1;fontColor=#ffffff;fontSize=12" parent="1" vertex="1">
          <mxGeometry x="640" y="130" width="80" height="33" as="geometry"/>
        </mxCell>
        <mxCell id="91r5-gFKFPTO61zWIt9e-1" value="字体风格设置" style="rounded=1;fillColor=#0065FF;strokeColor=none;html=1;fontColor=#ffffff;align=center;verticalAlign=middle;whiteSpace=wrap;fontSize=18;fontStyle=1;arcSize=50" vertex="1" parent="1">
          <mxGeometry x="240" y="20" width="410" height="40" as="geometry"/>
        </mxCell>
        <mxCell id="91r5-gFKFPTO61zWIt9e-2" value="TextStyle_Xxx_Xxx" style="rounded=1;arcSize=9;fillColor=#F7F8F9;align=left;spacingLeft=5;strokeColor=#DEE1E6;html=1;strokeWidth=2;fontSize=12" vertex="1" parent="1">
          <mxGeometry x="180" y="135" width="125" height="30" as="geometry"/>
        </mxCell>
        <mxCell id="91r5-gFKFPTO61zWIt9e-4" value="字体名称" style="fillColor=none;strokeColor=none;html=1;fontSize=11;fontStyle=0;align=left;fontColor=#596780;fontStyle=1;fontSize=11" vertex="1" parent="1">
          <mxGeometry x="80" y="140" width="60" height="20" as="geometry"/>
        </mxCell>
        <mxCell id="91r5-gFKFPTO61zWIt9e-6" value="描述" style="fillColor=none;strokeColor=none;html=1;fontSize=11;fontStyle=0;align=left;fontColor=#596780;fontStyle=1;fontSize=11" vertex="1" parent="1">
          <mxGeometry x="360" y="135" width="60" height="20" as="geometry"/>
        </mxCell>
        <mxCell id="91r5-gFKFPTO61zWIt9e-8" value="字母键盘-主丝印" style="rounded=1;arcSize=9;fillColor=#F7F8F9;align=left;spacingLeft=5;strokeColor=#DEE1E6;html=1;strokeWidth=2;fontSize=12" vertex="1" parent="1">
          <mxGeometry x="425.5" y="130" width="125" height="30" as="geometry"/>
        </mxCell>
        <mxCell id="91r5-gFKFPTO61zWIt9e-16" value="&lt;b&gt;从-资源管理-中字体文件列表中选择&lt;br&gt;&lt;/b&gt;" style="rounded=1;arcSize=3;fillColor=#ffffff;strokeColor=#DFE1E5;strokeWidth=1;shadow=1;align=left;html=1;whiteSpace=wrap;spacingLeft=20;spacingRight=20;fontSize=12" vertex="1" parent="1">
          <mxGeometry x="760" y="143" width="170" height="130" as="geometry"/>
        </mxCell>
        <mxCell id="91r5-gFKFPTO61zWIt9e-18" value="&lt;b&gt;颜色配置&lt;br&gt;是预定配置&lt;br&gt;&lt;/b&gt;" style="rounded=1;arcSize=3;fillColor=#ffffff;strokeColor=#DFE1E5;strokeWidth=1;shadow=1;align=left;html=1;whiteSpace=wrap;spacingLeft=20;spacingRight=20;fontSize=12" vertex="1" parent="1">
          <mxGeometry x="845" y="292.5" width="120" height="123" as="geometry"/>
        </mxCell>
        <mxCell id="91r5-gFKFPTO61zWIt9e-23" value="字母键盘-主丝印" style="rounded=1;arcSize=9;fillColor=#F7F8F9;align=left;spacingLeft=5;strokeColor=#DEE1E6;html=1;strokeWidth=2;fontSize=12" vertex="1" parent="1">
          <mxGeometry x="97.5" y="510" width="125" height="30" as="geometry"/>
        </mxCell>
        <mxCell id="91r5-gFKFPTO61zWIt9e-24" value="&lt;span style=&quot;color: rgb(89 , 103 , 128) ; font-size: 11px ; font-weight: 700&quot;&gt;符号键盘-主丝印&lt;/span&gt;" style="rounded=1;arcSize=9;fillColor=#F7F8F9;align=left;spacingLeft=5;strokeColor=#DEE1E6;html=1;strokeWidth=2;fontSize=12" vertex="1" parent="1">
          <mxGeometry x="244" y="510" width="125" height="30" as="geometry"/>
        </mxCell>
        <mxCell id="91r5-gFKFPTO61zWIt9e-26" value="&lt;span style=&quot;color: rgb(89 , 103 , 128) ; font-size: 11px ; font-weight: 700&quot;&gt;数字键盘-主丝印&lt;/span&gt;" style="rounded=1;arcSize=9;fillColor=#F7F8F9;align=left;spacingLeft=5;strokeColor=#DEE1E6;html=1;strokeWidth=2;fontSize=12" vertex="1" parent="1">
          <mxGeometry x="407.5" y="510" width="125" height="30" as="geometry"/>
        </mxCell>
        <mxCell id="91r5-gFKFPTO61zWIt9e-27" value="&lt;span style=&quot;color: rgb(89 , 103 , 128) ; font-size: 11px ; font-weight: 700&quot;&gt;语音切换-中&lt;/span&gt;" style="rounded=1;arcSize=9;fillColor=#F7F8F9;align=left;spacingLeft=5;strokeColor=#DEE1E6;html=1;strokeWidth=2;fontSize=12" vertex="1" parent="1">
          <mxGeometry x="571" y="510" width="125" height="30" as="geometry"/>
        </mxCell>
        <mxCell id="91r5-gFKFPTO61zWIt9e-28" value="&lt;span style=&quot;color: rgb(89 , 103 , 128) ; font-size: 11px ; font-weight: 700&quot;&gt;字母键盘-副丝印&lt;/span&gt;" style="rounded=1;arcSize=9;fillColor=#F7F8F9;align=left;spacingLeft=5;strokeColor=#DEE1E6;html=1;strokeWidth=2;fontSize=12" vertex="1" parent="1">
          <mxGeometry x="97.5" y="560" width="125" height="30" as="geometry"/>
        </mxCell>
        <mxCell id="91r5-gFKFPTO61zWIt9e-29" value="&lt;span style=&quot;color: rgb(89 , 103 , 128) ; font-size: 11px ; font-weight: 700&quot;&gt;符号键盘-副丝印&lt;/span&gt;" style="rounded=1;arcSize=9;fillColor=#F7F8F9;align=left;spacingLeft=5;strokeColor=#DEE1E6;html=1;strokeWidth=2;fontSize=12" vertex="1" parent="1">
          <mxGeometry x="254" y="560" width="125" height="30" as="geometry"/>
        </mxCell>
        <mxCell id="91r5-gFKFPTO61zWIt9e-30" value="&lt;span style=&quot;color: rgb(89 , 103 , 128) ; font-size: 11px ; font-weight: 700&quot;&gt;数字键盘-副丝印&lt;/span&gt;" style="rounded=1;arcSize=9;fillColor=#F7F8F9;align=left;spacingLeft=5;strokeColor=#DEE1E6;html=1;strokeWidth=2;fontSize=12" vertex="1" parent="1">
          <mxGeometry x="414" y="560" width="125" height="30" as="geometry"/>
        </mxCell>
        <mxCell id="91r5-gFKFPTO61zWIt9e-31" value="&lt;span style=&quot;color: rgb(89 , 103 , 128) ; font-size: 11px ; font-weight: 700&quot;&gt;语言切换-/&lt;/span&gt;" style="rounded=1;arcSize=9;fillColor=#F7F8F9;align=left;spacingLeft=5;strokeColor=#DEE1E6;html=1;strokeWidth=2;fontSize=12" vertex="1" parent="1">
          <mxGeometry x="574" y="560" width="125" height="30" as="geometry"/>
        </mxCell>
        <mxCell id="91r5-gFKFPTO61zWIt9e-32" value="&lt;span style=&quot;color: rgb(89 , 103 , 128) ; font-size: 11px ; font-weight: 700&quot;&gt;语言切换-X&lt;/span&gt;" style="rounded=1;arcSize=9;fillColor=#F7F8F9;align=left;spacingLeft=5;strokeColor=#DEE1E6;html=1;strokeWidth=2;fontSize=12" vertex="1" parent="1">
          <mxGeometry x="97.5" y="610" width="125" height="30" as="geometry"/>
        </mxCell>
      </root>
    </mxGraphModel>
  </diagram>
</mxfile>
